{
    "patcher": {
        "fileversion": 1,
        "appversion": {
            "major": 9,
            "minor": 1,
            "revision": 2,
            "architecture": "x64",
            "modernui": 1
        },
        "classnamespace": "box",
        "rect": [ 0.0, 0.0, 1000.0, 713.6 ],
        "boxes": [
            {
                "box": {
                    "format": 6,
                    "id": "obj-79",
                    "maxclass": "flonum",
                    "maximum": 2000.0,
                    "minimum": 0.5,
                    "numinlets": 1,
                    "numoutlets": 2,
                    "outlettype": [ "", "bang" ],
                    "parameter_enable": 0,
                    "patching_rect": [ 1110.0, 668.0, 50.0, 22.0 ]
                }
            },
            {
                "box": {
                    "id": "obj-80",
                    "maxclass": "comment",
                    "numinlets": 1,
                    "numoutlets": 0,
                    "patching_rect": [ 1190.0, 669.0, 68.0, 20.0 ],
                    "text": "Release"
                }
            },
            {
                "box": {
                    "id": "obj-82",
                    "maxclass": "message",
                    "numinlets": 2,
                    "numoutlets": 1,
                    "outlettype": [ "" ],
                    "patching_rect": [ 1110.0, 716.0, 65.0, 22.0 ],
                    "presentation_linecount": 2,
                    "text": "release $1"
                }
            },
            {
                "box": {
                    "format": 6,
                    "id": "obj-76",
                    "maxclass": "flonum",
                    "maximum": 2000.0,
                    "minimum": 0.5,
                    "numinlets": 1,
                    "numoutlets": 2,
                    "outlettype": [ "", "bang" ],
                    "parameter_enable": 0,
                    "patching_rect": [ 917.0, 668.0, 50.0, 22.0 ]
                }
            },
            {
                "box": {
                    "id": "obj-77",
                    "maxclass": "comment",
                    "numinlets": 1,
                    "numoutlets": 0,
                    "patching_rect": [ 997.0, 669.0, 68.0, 20.0 ],
                    "text": "Attack"
                }
            },
            {
                "box": {
                    "id": "obj-78",
                    "maxclass": "message",
                    "numinlets": 2,
                    "numoutlets": 1,
                    "outlettype": [ "" ],
                    "patching_rect": [ 917.0, 716.0, 57.0, 22.0 ],
                    "presentation_linecount": 2,
                    "text": "attack $1"
                }
            },
            {
                "box": {
                    "id": "obj-68",
                    "maxclass": "comment",
                    "numinlets": 1,
                    "numoutlets": 0,
                    "patching_rect": [ 193.0, 791.0, 80.0, 20.0 ],
                    "text": "Compressor!"
                }
            },
            {
                "box": {
                    "format": 6,
                    "id": "obj-61",
                    "maxclass": "flonum",
                    "maximum": 20.0,
                    "minimum": 1.0,
                    "numinlets": 1,
                    "numoutlets": 2,
                    "outlettype": [ "", "bang" ],
                    "parameter_enable": 0,
                    "patching_rect": [ 732.0, 667.0, 50.0, 22.0 ]
                }
            },
            {
                "box": {
                    "id": "obj-62",
                    "maxclass": "comment",
                    "numinlets": 1,
                    "numoutlets": 0,
                    "patching_rect": [ 812.0, 668.0, 68.0, 20.0 ],
                    "text": "Ratio"
                }
            },
            {
                "box": {
                    "id": "obj-65",
                    "maxclass": "message",
                    "numinlets": 2,
                    "numoutlets": 1,
                    "outlettype": [ "" ],
                    "patching_rect": [ 732.0, 715.0, 49.0, 22.0 ],
                    "text": "ratio $1"
                }
            },
            {
                "box": {
                    "format": 6,
                    "id": "obj-56",
                    "maxclass": "flonum",
                    "maximum": 15.0,
                    "minimum": -70.0,
                    "numinlets": 1,
                    "numoutlets": 2,
                    "outlettype": [ "", "bang" ],
                    "parameter_enable": 0,
                    "patching_rect": [ 541.0, 666.0, 50.0, 22.0 ]
                }
            },
            {
                "box": {
                    "id": "obj-57",
                    "maxclass": "comment",
                    "numinlets": 1,
                    "numoutlets": 0,
                    "patching_rect": [ 621.0, 667.0, 68.0, 20.0 ],
                    "text": "Threshold"
                }
            },
            {
                "box": {
                    "id": "obj-51",
                    "maxclass": "message",
                    "numinlets": 2,
                    "numoutlets": 1,
                    "outlettype": [ "" ],
                    "patching_rect": [ 541.0, 714.0, 75.0, 22.0 ],
                    "presentation_linecount": 2,
                    "text": "threshold $1"
                }
            },
            {
                "box": {
                    "id": "obj-50",
                    "maxclass": "message",
                    "numinlets": 2,
                    "numoutlets": 1,
                    "outlettype": [ "" ],
                    "patching_rect": [ 366.0, 714.0, 51.0, 22.0 ],
                    "text": "input $1"
                }
            },
            {
                "box": {
                    "format": 6,
                    "id": "obj-47",
                    "maxclass": "flonum",
                    "maximum": 15.0,
                    "minimum": -70.0,
                    "numinlets": 1,
                    "numoutlets": 2,
                    "outlettype": [ "", "bang" ],
                    "parameter_enable": 0,
                    "patching_rect": [ 366.0, 666.0, 50.0, 22.0 ]
                }
            },
            {
                "box": {
                    "angle": 270.0,
                    "bgcolor": [ 0.0, 0.0, 0.0, 0.0 ],
                    "id": "obj-43",
                    "maxclass": "panel",
                    "mode": 0,
                    "numinlets": 1,
                    "numoutlets": 0,
                    "patching_rect": [ 202.0, 2331.0, 648.0, 373.0 ],
                    "proportion": 0.39,
                    "saved_attribute_attributes": {
                        "bgfillcolor": {
                            "expression": "themecolor.live_input_curve_outline_color"
                        }
                    }
                }
            },
            {
                "box": {
                    "id": "obj-34",
                    "maxclass": "newobj",
                    "numinlets": 2,
                    "numoutlets": 2,
                    "outlettype": [ "signal", "signal" ],
                    "patcher": {
                        "fileversion": 1,
                        "appversion": {
                            "major": 9,
                            "minor": 1,
                            "revision": 2,
                            "architecture": "x64",
                            "modernui": 1
                        },
                        "classnamespace": "dsp.gen",
                        "rect": [ 0.0, 0.0, 600.0, 450.0 ],
                        "boxes": [
                            {
                                "box": {
                                    "id": "obj-62",
                                    "maxclass": "newobj",
                                    "numinlets": 2,
                                    "numoutlets": 1,
                                    "outlettype": [ "" ],
                                    "patching_rect": [ 1044.6666978001595, 715.333354651928, 29.5, 22.0 ],
                                    "text": "*"
                                }
                            },
                            {
                                "box": {
                                    "id": "obj-61",
                                    "maxclass": "newobj",
                                    "numinlets": 2,
                                    "numoutlets": 1,
                                    "outlettype": [ "" ],
                                    "patching_rect": [ 988.0000294446945, 715.333354651928, 29.5, 22.0 ],
                                    "text": "*"
                                }
                            },
                            {
                                "box": {
                                    "id": "obj-58",
                                    "maxclass": "newobj",
                                    "numinlets": 0,
                                    "numoutlets": 1,
                                    "outlettype": [ "" ],
                                    "patching_rect": [ 1044.6666978001595, 563.333350121975, 254.0, 22.0 ],
                                    "text": "param @name release @min 0.5 @max 2000",
                                    "varname": "param[4]"
                                }
                            },
                            {
                                "box": {
                                    "id": "obj-57",
                                    "maxclass": "comment",
                                    "numinlets": 1,
                                    "numoutlets": 0,
                                    "patching_rect": [ 1245.3333704471588, 518.000015437603, 96.00000286102295, 20.0 ],
                                    "text": "min/max in ms"
                                }
                            },
                            {
                                "box": {
                                    "id": "obj-55",
                                    "maxclass": "newobj",
                                    "numinlets": 0,
                                    "numoutlets": 1,
                                    "outlettype": [ "" ],
                                    "patching_rect": [ 988.0000294446945, 517.3333487510681, 246.0, 22.0 ],
                                    "text": "param @name attack @min 0.5 @max 2000",
                                    "varname": "param[3]"
                                }
                            },
                            {
                                "box": {
                                    "id": "obj-54",
                                    "maxclass": "comment",
                                    "numinlets": 1,
                                    "numoutlets": 0,
                                    "patching_rect": [ 1140.6667006611824, 644.6666858792305, 88.00000262260437, 20.0 ],
                                    "text": "to millisecond"
                                }
                            },
                            {
                                "box": {
                                    "id": "obj-52",
                                    "maxclass": "newobj",
                                    "numinlets": 1,
                                    "numoutlets": 1,
                                    "outlettype": [ "" ],
                                    "patching_rect": [ 1082.0000322461128, 644.0000191926956, 47.0, 22.0 ],
                                    "text": "* 0.001"
                                }
                            },
                            {
                                "box": {
                                    "id": "obj-51",
                                    "maxclass": "newobj",
                                    "numinlets": 0,
                                    "numoutlets": 1,
                                    "outlettype": [ "" ],
                                    "patching_rect": [ 1082.0000322461128, 600.6666845679283, 68.0, 22.0 ],
                                    "text": "samplerate"
                                }
                            },
                            {
                                "box": {
                                    "id": "obj-49",
                                    "maxclass": "newobj",
                                    "numinlets": 1,
                                    "numoutlets": 1,
                                    "outlettype": [ "" ],
                                    "patching_rect": [ 825.3333579301834, 613.3333516120911, 27.0, 22.0 ],
                                    "text": "* -1"
                                }
                            },
                            {
                                "box": {
                                    "id": "obj-48",
                                    "maxclass": "newobj",
                                    "numinlets": 1,
                                    "numoutlets": 1,
                                    "outlettype": [ "" ],
                                    "patching_rect": [ 513.7142848968506, 549.3333497047424, 26.0, 22.0 ],
                                    "text": "+ 1"
                                }
                            },
                            {
                                "box": {
                                    "id": "obj-47",
                                    "maxclass": "comment",
                                    "numinlets": 1,
                                    "numoutlets": 0,
                                    "patching_rect": [ 628.3809549808502, 764.0000227689743, 150.0, 20.0 ],
                                    "text": "for our attack and release"
                                }
                            },
                            {
                                "box": {
                                    "id": "obj-45",
                                    "maxclass": "newobj",
                                    "numinlets": 3,
                                    "numoutlets": 1,
                                    "outlettype": [ "" ],
                                    "patching_rect": [ 513.7142848968506, 763.3333560824394, 90.6666693687439, 22.0 ],
                                    "text": "slide"
                                }
                            },
                            {
                                "box": {
                                    "id": "obj-44",
                                    "maxclass": "newobj",
                                    "numinlets": 1,
                                    "numoutlets": 1,
                                    "outlettype": [ "" ],
                                    "patching_rect": [ 1008.000030040741, 342.00001019239426, 42.0, 22.0 ],
                                    "text": "rsub 1"
                                }
                            },
                            {
                                "box": {
                                    "id": "obj-41",
                                    "maxclass": "newobj",
                                    "numinlets": 1,
                                    "numoutlets": 1,
                                    "outlettype": [ "" ],
                                    "patching_rect": [ 825.3333579301834, 549.3333497047424, 42.0, 22.0 ],
                                    "text": "rsub 1"
                                }
                            },
                            {
                                "box": {
                                    "id": "obj-40",
                                    "maxclass": "comment",
                                    "numinlets": 1,
                                    "numoutlets": 0,
                                    "patching_rect": [ 884.000026345253, 484.6666811108589, 70.00000208616257, 20.0 ],
                                    "text": "db to ampl"
                                }
                            },
                            {
                                "box": {
                                    "id": "obj-37",
                                    "maxclass": "newobj",
                                    "numinlets": 1,
                                    "numoutlets": 1,
                                    "outlettype": [ "" ],
                                    "patching_rect": [ 825.3333579301834, 483.33334773778915, 39.0, 22.0 ],
                                    "text": "dbtoa"
                                }
                            },
                            {
                                "box": {
                                    "id": "obj-36",
                                    "maxclass": "newobj",
                                    "numinlets": 2,
                                    "numoutlets": 1,
                                    "outlettype": [ "" ],
                                    "patching_rect": [ 825.3333579301834, 396.0, 54.66666829586029, 22.0 ],
                                    "text": "*"
                                }
                            },
                            {
                                "box": {
                                    "id": "obj-34",
                                    "maxclass": "newobj",
                                    "numinlets": 0,
                                    "numoutlets": 1,
                                    "outlettype": [ "" ],
                                    "patching_rect": [ 1012.6666968464851, 103.0, 214.0, 22.0 ],
                                    "text": "param @name ratio @min 1 @max 20",
                                    "varname": "param[2]"
                                }
                            },
                            {
                                "box": {
                                    "id": "obj-33",
                                    "maxclass": "comment",
                                    "numinlets": 1,
                                    "numoutlets": 0,
                                    "patching_rect": [ 1067.8809813261032, 267.0, 103.57143104076385, 20.0 ],
                                    "text": "reverse division 1"
                                }
                            },
                            {
                                "box": {
                                    "id": "obj-31",
                                    "maxclass": "newobj",
                                    "numinlets": 1,
                                    "numoutlets": 1,
                                    "outlettype": [ "" ],
                                    "patching_rect": [ 1009.8809795975685, 266.3333333134651, 38.0, 22.0 ],
                                    "text": "rdiv 1"
                                }
                            },
                            {
                                "box": {
                                    "id": "obj-30",
                                    "maxclass": "comment",
                                    "numinlets": 1,
                                    "numoutlets": 0,
                                    "patching_rect": [ 857.857163310051, 267.0, 81.42857336997986, 20.0 ],
                                    "text": "Overshoot"
                                }
                            },
                            {
                                "box": {
                                    "id": "obj-28",
                                    "maxclass": "newobj",
                                    "numinlets": 2,
                                    "numoutlets": 1,
                                    "outlettype": [ "" ],
                                    "patching_rect": [ 772.1428755521774, 266.0, 67.1428587436676, 22.0 ],
                                    "text": "-"
                                }
                            },
                            {
                                "box": {
                                    "id": "obj-24",
                                    "maxclass": "newobj",
                                    "numinlets": 2,
                                    "numoutlets": 1,
                                    "outlettype": [ "" ],
                                    "patching_rect": [ 513.7142848968506, 487.85715448856354, 68.57143020629883, 22.0 ],
                                    "text": "*"
                                }
                            },
                            {
                                "box": {
                                    "fontname": "Arial",
                                    "fontsize": 12.0,
                                    "id": "obj-22",
                                    "maxclass": "newobj",
                                    "numinlets": 2,
                                    "numoutlets": 1,
                                    "outlettype": [ "" ],
                                    "patching_rect": [ 304.38094532489777, 866.6666924953461, 29.5, 22.0 ],
                                    "text": "*"
                                }
                            },
                            {
                                "box": {
                                    "fontname": "Arial",
                                    "fontsize": 12.0,
                                    "id": "obj-23",
                                    "maxclass": "newobj",
                                    "numinlets": 2,
                                    "numoutlets": 1,
                                    "outlettype": [ "" ],
                                    "patching_rect": [ 55.71427124738693, 866.6666924953461, 29.5, 22.0 ],
                                    "text": "*"
                                }
                            },
                            {
                                "box": {
                                    "id": "obj-20",
                                    "linecount": 3,
                                    "maxclass": "comment",
                                    "numinlets": 1,
                                    "numoutlets": 0,
                                    "patching_rect": [ 625.0, 396.0, 150.0, 47.0 ],
                                    "text": "anything above threshold will produce 1, anything below will produce 0"
                                }
                            },
                            {
                                "box": {
                                    "id": "obj-18",
                                    "linecount": 2,
                                    "maxclass": "comment",
                                    "numinlets": 1,
                                    "numoutlets": 0,
                                    "patching_rect": [ 722.0, 139.0, 150.0, 33.0 ],
                                    "text": "-70db is roughly 0 ampl and 6 is roughly 2 ampl"
                                }
                            },
                            {
                                "box": {
                                    "id": "obj-16",
                                    "maxclass": "newobj",
                                    "numinlets": 0,
                                    "numoutlets": 1,
                                    "outlettype": [ "" ],
                                    "patching_rect": [ 722.0, 103.0, 244.0, 22.0 ],
                                    "text": "param @name threshold @min -70 @max 6",
                                    "varname": "param[1]"
                                }
                            },
                            {
                                "box": {
                                    "id": "obj-15",
                                    "maxclass": "newobj",
                                    "numinlets": 1,
                                    "numoutlets": 1,
                                    "outlettype": [ "" ],
                                    "patching_rect": [ 514.0, 396.0, 68.0, 22.0 ],
                                    "text": "> threshold"
                                }
                            },
                            {
                                "box": {
                                    "id": "obj-14",
                                    "maxclass": "comment",
                                    "numinlets": 1,
                                    "numoutlets": 0,
                                    "patching_rect": [ 705.0, 321.0, 39.0, 20.0 ],
                                    "text": "X[n]"
                                }
                            },
                            {
                                "box": {
                                    "id": "obj-12",
                                    "maxclass": "comment",
                                    "numinlets": 1,
                                    "numoutlets": 0,
                                    "patching_rect": [ 586.0, 321.0, 97.0, 20.0 ],
                                    "text": "amplitude to db"
                                }
                            },
                            {
                                "box": {
                                    "id": "obj-10",
                                    "maxclass": "comment",
                                    "numinlets": 1,
                                    "numoutlets": 0,
                                    "patching_rect": [ 570.0, 267.0, 150.0, 20.0 ],
                                    "text": "taking absolute loadness"
                                }
                            },
                            {
                                "box": {
                                    "id": "obj-8",
                                    "maxclass": "newobj",
                                    "numinlets": 1,
                                    "numoutlets": 1,
                                    "outlettype": [ "" ],
                                    "patching_rect": [ 514.0, 319.0, 39.0, 22.0 ],
                                    "text": "atodb"
                                }
                            },
                            {
                                "box": {
                                    "id": "obj-7",
                                    "maxclass": "newobj",
                                    "numinlets": 1,
                                    "numoutlets": 1,
                                    "outlettype": [ "" ],
                                    "patching_rect": [ 514.0, 266.0, 28.0, 22.0 ],
                                    "text": "abs"
                                }
                            },
                            {
                                "box": {
                                    "fontname": "Arial",
                                    "fontsize": 12.0,
                                    "id": "obj-5",
                                    "maxclass": "newobj",
                                    "numinlets": 2,
                                    "numoutlets": 1,
                                    "outlettype": [ "" ],
                                    "patching_rect": [ 307.75, 181.0, 29.5, 22.0 ],
                                    "text": "*"
                                }
                            },
                            {
                                "box": {
                                    "id": "obj-3",
                                    "maxclass": "newobj",
                                    "numinlets": 1,
                                    "numoutlets": 0,
                                    "patching_rect": [ 307.7142787575722, 967.3333621621132, 35.0, 22.0 ],
                                    "text": "out 2"
                                }
                            },
                            {
                                "box": {
                                    "id": "obj-39",
                                    "maxclass": "newobj",
                                    "numinlets": 0,
                                    "numoutlets": 1,
                                    "outlettype": [ "" ],
                                    "patching_rect": [ 437.0, 103.0, 228.0, 22.0 ],
                                    "text": "param @name input @min -70 @max 15",
                                    "varname": "param"
                                }
                            },
                            {
                                "box": {
                                    "id": "obj-35",
                                    "maxclass": "newobj",
                                    "numinlets": 1,
                                    "numoutlets": 1,
                                    "outlettype": [ "" ],
                                    "patching_rect": [ 437.0, 174.0, 39.0, 22.0 ],
                                    "text": "dbtoa"
                                }
                            },
                            {
                                "box": {
                                    "fontname": "Arial",
                                    "fontsize": 12.0,
                                    "id": "obj-42",
                                    "maxclass": "newobj",
                                    "numinlets": 2,
                                    "numoutlets": 1,
                                    "outlettype": [ "" ],
                                    "patching_rect": [ 58.25, 181.0, 29.5, 22.0 ],
                                    "text": "*"
                                }
                            },
                            {
                                "box": {
                                    "id": "obj-1",
                                    "maxclass": "newobj",
                                    "numinlets": 0,
                                    "numoutlets": 1,
                                    "outlettype": [ "" ],
                                    "patching_rect": [ 58.25, 14.0, 28.0, 22.0 ],
                                    "text": "in 1"
                                }
                            },
                            {
                                "box": {
                                    "id": "obj-2",
                                    "maxclass": "newobj",
                                    "numinlets": 0,
                                    "numoutlets": 1,
                                    "outlettype": [ "" ],
                                    "patching_rect": [ 305.0, 14.0, 28.0, 22.0 ],
                                    "text": "in 2"
                                }
                            },
                            {
                                "box": {
                                    "id": "obj-4",
                                    "maxclass": "newobj",
                                    "numinlets": 1,
                                    "numoutlets": 0,
                                    "patching_rect": [ 57.71427130699158, 967.3333621621132, 35.0, 22.0 ],
                                    "text": "out 1"
                                }
                            }
                        ],
                        "lines": [
                            {
                                "patchline": {
                                    "destination": [ "obj-42", 0 ],
                                    "source": [ "obj-1", 0 ]
                                }
                            },
                            {
                                "patchline": {
                                    "destination": [ "obj-24", 0 ],
                                    "source": [ "obj-15", 0 ]
                                }
                            },
                            {
                                "patchline": {
                                    "destination": [ "obj-28", 0 ],
                                    "source": [ "obj-16", 0 ]
                                }
                            },
                            {
                                "patchline": {
                                    "destination": [ "obj-5", 0 ],
                                    "source": [ "obj-2", 0 ]
                                }
                            },
                            {
                                "patchline": {
                                    "destination": [ "obj-3", 0 ],
                                    "source": [ "obj-22", 0 ]
                                }
                            },
                            {
                                "patchline": {
                                    "destination": [ "obj-4", 0 ],
                                    "source": [ "obj-23", 0 ]
                                }
                            },
                            {
                                "patchline": {
                                    "destination": [ "obj-48", 0 ],
                                    "source": [ "obj-24", 0 ]
                                }
                            },
                            {
                                "patchline": {
                                    "destination": [ "obj-36", 0 ],
                                    "source": [ "obj-28", 0 ]
                                }
                            },
                            {
                                "patchline": {
                                    "destination": [ "obj-44", 0 ],
                                    "source": [ "obj-31", 0 ]
                                }
                            },
                            {
                                "patchline": {
                                    "destination": [ "obj-31", 0 ],
                                    "source": [ "obj-34", 0 ]
                                }
                            },
                            {
                                "patchline": {
                                    "destination": [ "obj-42", 1 ],
                                    "order": 1,
                                    "source": [ "obj-35", 0 ]
                                }
                            },
                            {
                                "patchline": {
                                    "destination": [ "obj-5", 1 ],
                                    "order": 0,
                                    "source": [ "obj-35", 0 ]
                                }
                            },
                            {
                                "patchline": {
                                    "destination": [ "obj-37", 0 ],
                                    "source": [ "obj-36", 0 ]
                                }
                            },
                            {
                                "patchline": {
                                    "destination": [ "obj-41", 0 ],
                                    "source": [ "obj-37", 0 ]
                                }
                            },
                            {
                                "patchline": {
                                    "destination": [ "obj-35", 0 ],
                                    "source": [ "obj-39", 0 ]
                                }
                            },
                            {
                                "patchline": {
                                    "destination": [ "obj-49", 0 ],
                                    "source": [ "obj-41", 0 ]
                                }
                            },
                            {
                                "patchline": {
                                    "destination": [ "obj-23", 0 ],
                                    "order": 1,
                                    "source": [ "obj-42", 0 ]
                                }
                            },
                            {
                                "patchline": {
                                    "destination": [ "obj-7", 0 ],
                                    "order": 0,
                                    "source": [ "obj-42", 0 ]
                                }
                            },
                            {
                                "patchline": {
                                    "destination": [ "obj-36", 1 ],
                                    "source": [ "obj-44", 0 ]
                                }
                            },
                            {
                                "patchline": {
                                    "destination": [ "obj-22", 1 ],
                                    "order": 0,
                                    "source": [ "obj-45", 0 ]
                                }
                            },
                            {
                                "patchline": {
                                    "destination": [ "obj-23", 1 ],
                                    "order": 1,
                                    "source": [ "obj-45", 0 ]
                                }
                            },
                            {
                                "patchline": {
                                    "destination": [ "obj-45", 0 ],
                                    "source": [ "obj-48", 0 ]
                                }
                            },
                            {
                                "patchline": {
                                    "destination": [ "obj-24", 1 ],
                                    "source": [ "obj-49", 0 ]
                                }
                            },
                            {
                                "patchline": {
                                    "destination": [ "obj-22", 0 ],
                                    "order": 1,
                                    "source": [ "obj-5", 0 ]
                                }
                            },
                            {
                                "patchline": {
                                    "destination": [ "obj-7", 0 ],
                                    "order": 0,
                                    "source": [ "obj-5", 0 ]
                                }
                            },
                            {
                                "patchline": {
                                    "destination": [ "obj-52", 0 ],
                                    "source": [ "obj-51", 0 ]
                                }
                            },
                            {
                                "patchline": {
                                    "destination": [ "obj-61", 1 ],
                                    "order": 1,
                                    "source": [ "obj-52", 0 ]
                                }
                            },
                            {
                                "patchline": {
                                    "destination": [ "obj-62", 1 ],
                                    "order": 0,
                                    "source": [ "obj-52", 0 ]
                                }
                            },
                            {
                                "patchline": {
                                    "destination": [ "obj-61", 0 ],
                                    "source": [ "obj-55", 0 ]
                                }
                            },
                            {
                                "patchline": {
                                    "destination": [ "obj-62", 0 ],
                                    "source": [ "obj-58", 0 ]
                                }
                            },
                            {
                                "patchline": {
                                    "destination": [ "obj-45", 2 ],
                                    "source": [ "obj-61", 0 ]
                                }
                            },
                            {
                                "patchline": {
                                    "destination": [ "obj-45", 1 ],
                                    "source": [ "obj-62", 0 ]
                                }
                            },
                            {
                                "patchline": {
                                    "destination": [ "obj-8", 0 ],
                                    "source": [ "obj-7", 0 ]
                                }
                            },
                            {
                                "patchline": {
                                    "destination": [ "obj-15", 0 ],
                                    "order": 1,
                                    "source": [ "obj-8", 0 ]
                                }
                            },
                            {
                                "patchline": {
                                    "destination": [ "obj-28", 1 ],
                                    "order": 0,
                                    "source": [ "obj-8", 0 ]
                                }
                            }
                        ]
                    },
                    "patching_rect": [ 310.0, 790.0, 136.0, 22.0 ],
                    "text": "gen~ @title compressor"
                }
            },
            {
                "box": {
                    "id": "obj-30",
                    "maxclass": "newobj",
                    "numinlets": 1,
                    "numoutlets": 1,
                    "outlettype": [ "bang" ],
                    "patching_rect": [ 68.0, 419.0, 58.0, 22.0 ],
                    "text": "loadbang"
                }
            },
            {
                "box": {
                    "fontname": "Arial",
                    "fontsize": 12.0,
                    "id": "obj-69",
                    "maxclass": "comment",
                    "numinlets": 1,
                    "numoutlets": 0,
                    "patching_rect": [ 685.0, 1802.0, 485.0, 20.0 ],
                    "text": "the threshold, preamp, and postamp attributes are specified in decibels (0 dB = full scale)."
                }
            },
            {
                "box": {
                    "fontname": "Arial",
                    "fontsize": 12.0,
                    "id": "obj-70",
                    "maxclass": "comment",
                    "numinlets": 1,
                    "numoutlets": 0,
                    "patching_rect": [ 685.0, 1826.0, 262.0, 20.0 ],
                    "text": "the release attribute is specified in milliseconds."
                }
            },
            {
                "box": {
                    "fontname": "Arial",
                    "fontsize": 12.0,
                    "id": "obj-53",
                    "maxclass": "comment",
                    "numinlets": 1,
                    "numoutlets": 0,
                    "patching_rect": [ 685.0, 1778.0, 427.0, 20.0 ],
                    "text": "A gain control that is applied (in decibels) after the limiting process is complete."
                }
            },
            {
                "box": {
                    "fontname": "Arial",
                    "fontsize": 12.0,
                    "id": "obj-71",
                    "maxclass": "comment",
                    "numinlets": 1,
                    "numoutlets": 0,
                    "patching_rect": [ 685.0, 1754.0, 396.0, 20.0 ],
                    "text": "A gain control that is applied (in decibels) prior to the signal being limited."
                }
            },
            {
                "box": {
                    "attr": "release",
                    "fontname": "Arial",
                    "fontsize": 12.0,
                    "id": "obj-48",
                    "maxclass": "attrui",
                    "numinlets": 1,
                    "numoutlets": 1,
                    "outlettype": [ "" ],
                    "parameter_enable": 0,
                    "patching_rect": [ 467.0, 1823.0, 205.0, 22.0 ]
                }
            },
            {
                "box": {
                    "id": "obj-67",
                    "maxclass": "newobj",
                    "numinlets": 2,
                    "numoutlets": 1,
                    "outlettype": [ "signal" ],
                    "patching_rect": [ 1439.0, 767.0, 60.0, 22.0 ],
                    "text": "cascade~"
                }
            },
            {
                "box": {
                    "id": "obj-64",
                    "maxclass": "comment",
                    "numinlets": 1,
                    "numoutlets": 0,
                    "patching_rect": [ 445.0, 667.0, 72.0, 20.0 ],
                    "text": "input gain"
                }
            },
            {
                "box": {
                    "attr": "threshold",
                    "fontname": "Arial",
                    "fontsize": 12.0,
                    "id": "obj-59",
                    "maxclass": "attrui",
                    "numinlets": 1,
                    "numoutlets": 1,
                    "outlettype": [ "" ],
                    "parameter_enable": 0,
                    "patching_rect": [ 467.0, 1801.0, 205.0, 22.0 ]
                }
            },
            {
                "box": {
                    "attr": "postamp",
                    "fontname": "Arial",
                    "fontsize": 12.0,
                    "id": "obj-32",
                    "maxclass": "attrui",
                    "numinlets": 1,
                    "numoutlets": 1,
                    "outlettype": [ "" ],
                    "parameter_enable": 0,
                    "patching_rect": [ 467.0, 1777.0, 205.0, 22.0 ]
                }
            },
            {
                "box": {
                    "attr": "preamp",
                    "fontname": "Arial",
                    "fontsize": 12.0,
                    "id": "obj-60",
                    "maxclass": "attrui",
                    "numinlets": 1,
                    "numoutlets": 1,
                    "outlettype": [ "" ],
                    "parameter_enable": 0,
                    "patching_rect": [ 467.0, 1753.0, 205.0, 22.0 ]
                }
            },
            {
                "box": {
                    "id": "obj-58",
                    "maxclass": "comment",
                    "numinlets": 1,
                    "numoutlets": 0,
                    "patching_rect": [ 467.0, 1722.0, 150.0, 20.0 ],
                    "text": "for my limitor"
                }
            },
            {
                "box": {
                    "id": "obj-55",
                    "maxclass": "message",
                    "numinlets": 2,
                    "numoutlets": 1,
                    "outlettype": [ "" ],
                    "patching_rect": [ 933.0, 122.0, 49.0, 22.0 ],
                    "text": "resume"
                }
            },
            {
                "box": {
                    "id": "obj-54",
                    "maxclass": "message",
                    "numinlets": 2,
                    "numoutlets": 1,
                    "outlettype": [ "" ],
                    "patching_rect": [ 871.0, 122.0, 41.0, 22.0 ],
                    "text": "pause"
                }
            },
            {
                "box": {
                    "id": "obj-52",
                    "maxclass": "newobj",
                    "numinlets": 1,
                    "numoutlets": 1,
                    "outlettype": [ "signal" ],
                    "patching_rect": [ 331.0, 1895.0, 34.0, 22.0 ],
                    "text": "limi~"
                }
            },
            {
                "box": {
                    "id": "obj-44",
                    "maxclass": "comment",
                    "numinlets": 1,
                    "numoutlets": 0,
                    "patching_rect": [ 1115.0, 1425.0, 150.0, 20.0 ],
                    "text": "here is our eq filter"
                }
            },
            {
                "box": {
                    "id": "obj-40",
                    "maxclass": "message",
                    "numinlets": 2,
                    "numoutlets": 1,
                    "outlettype": [ "" ],
                    "patching_rect": [ 245.0, 2375.0, 29.5, 22.0 ],
                    "text": "1"
                }
            },
            {
                "box": {
                    "floatoutput": 1,
                    "id": "obj-37",
                    "maxclass": "dial",
                    "numinlets": 1,
                    "numoutlets": 1,
                    "outlettype": [ "float" ],
                    "parameter_enable": 0,
                    "patching_rect": [ 472.0, 2461.0, 40.0, 40.0 ],
                    "size": 1.0
                }
            },
            {
                "box": {
                    "format": 6,
                    "id": "obj-38",
                    "maxclass": "flonum",
                    "numinlets": 1,
                    "numoutlets": 2,
                    "outlettype": [ "", "bang" ],
                    "parameter_enable": 0,
                    "patching_rect": [ 472.0, 2532.0, 50.0, 22.0 ]
                }
            },
            {
                "box": {
                    "floatoutput": 1,
                    "id": "obj-36",
                    "maxclass": "dial",
                    "numinlets": 1,
                    "numoutlets": 1,
                    "outlettype": [ "float" ],
                    "parameter_enable": 0,
                    "patching_rect": [ 251.0, 2461.0, 40.0, 40.0 ],
                    "size": 1.0
                }
            },
            {
                "box": {
                    "id": "obj-33",
                    "maxclass": "message",
                    "numinlets": 2,
                    "numoutlets": 1,
                    "outlettype": [ "" ],
                    "patching_rect": [ 356.0, 2375.0, 93.0, 22.0 ],
                    "text": "setminmax 0. 1."
                }
            },
            {
                "box": {
                    "format": 6,
                    "id": "obj-31",
                    "maxclass": "flonum",
                    "numinlets": 1,
                    "numoutlets": 2,
                    "outlettype": [ "", "bang" ],
                    "parameter_enable": 0,
                    "patching_rect": [ 251.0, 2532.0, 50.0, 22.0 ]
                }
            },
            {
                "box": {
                    "id": "obj-28",
                    "maxclass": "button",
                    "numinlets": 1,
                    "numoutlets": 1,
                    "outlettype": [ "bang" ],
                    "parameter_enable": 0,
                    "patching_rect": [ 814.0, 62.0, 24.0, 24.0 ]
                }
            },
            {
                "box": {
                    "id": "obj-29",
                    "maxclass": "message",
                    "numinlets": 2,
                    "numoutlets": 1,
                    "outlettype": [ "" ],
                    "patching_rect": [ 814.0, 122.0, 29.5, 22.0 ],
                    "text": "8"
                }
            },
            {
                "box": {
                    "id": "obj-26",
                    "maxclass": "button",
                    "numinlets": 1,
                    "numoutlets": 1,
                    "outlettype": [ "bang" ],
                    "parameter_enable": 0,
                    "patching_rect": [ 753.0, 62.0, 24.0, 24.0 ]
                }
            },
            {
                "box": {
                    "id": "obj-27",
                    "maxclass": "message",
                    "numinlets": 2,
                    "numoutlets": 1,
                    "outlettype": [ "" ],
                    "patching_rect": [ 753.0, 122.0, 29.5, 22.0 ],
                    "text": "7"
                }
            },
            {
                "box": {
                    "id": "obj-23",
                    "maxclass": "button",
                    "numinlets": 1,
                    "numoutlets": 1,
                    "outlettype": [ "bang" ],
                    "parameter_enable": 0,
                    "patching_rect": [ 690.0, 62.0, 24.0, 24.0 ]
                }
            },
            {
                "box": {
                    "id": "obj-25",
                    "maxclass": "message",
                    "numinlets": 2,
                    "numoutlets": 1,
                    "outlettype": [ "" ],
                    "patching_rect": [ 690.0, 122.0, 29.5, 22.0 ],
                    "text": "6"
                }
            },
            {
                "box": {
                    "id": "obj-21",
                    "maxclass": "button",
                    "numinlets": 1,
                    "numoutlets": 1,
                    "outlettype": [ "bang" ],
                    "parameter_enable": 0,
                    "patching_rect": [ 612.5, 62.0, 24.0, 24.0 ]
                }
            },
            {
                "box": {
                    "id": "obj-22",
                    "maxclass": "message",
                    "numinlets": 2,
                    "numoutlets": 1,
                    "outlettype": [ "" ],
                    "patching_rect": [ 612.5, 122.0, 29.5, 22.0 ],
                    "text": "5"
                }
            },
            {
                "box": {
                    "id": "obj-19",
                    "maxclass": "button",
                    "numinlets": 1,
                    "numoutlets": 1,
                    "outlettype": [ "bang" ],
                    "parameter_enable": 0,
                    "patching_rect": [ 537.0, 62.0, 24.0, 24.0 ]
                }
            },
            {
                "box": {
                    "id": "obj-20",
                    "maxclass": "message",
                    "numinlets": 2,
                    "numoutlets": 1,
                    "outlettype": [ "" ],
                    "patching_rect": [ 537.0, 122.0, 29.5, 22.0 ],
                    "text": "4"
                }
            },
            {
                "box": {
                    "id": "obj-17",
                    "maxclass": "button",
                    "numinlets": 1,
                    "numoutlets": 1,
                    "outlettype": [ "bang" ],
                    "parameter_enable": 0,
                    "patching_rect": [ 466.0, 62.0, 24.0, 24.0 ]
                }
            },
            {
                "box": {
                    "id": "obj-18",
                    "maxclass": "message",
                    "numinlets": 2,
                    "numoutlets": 1,
                    "outlettype": [ "" ],
                    "patching_rect": [ 466.0, 122.0, 29.5, 22.0 ],
                    "text": "3"
                }
            },
            {
                "box": {
                    "id": "obj-15",
                    "maxclass": "button",
                    "numinlets": 1,
                    "numoutlets": 1,
                    "outlettype": [ "bang" ],
                    "parameter_enable": 0,
                    "patching_rect": [ 389.0, 62.0, 24.0, 24.0 ]
                }
            },
            {
                "box": {
                    "id": "obj-16",
                    "maxclass": "message",
                    "numinlets": 2,
                    "numoutlets": 1,
                    "outlettype": [ "" ],
                    "patching_rect": [ 389.0, 122.0, 29.5, 22.0 ],
                    "text": "2"
                }
            },
            {
                "box": {
                    "fontname": "Arial",
                    "fontsize": 13.0,
                    "hidden": 1,
                    "id": "obj-10",
                    "maxclass": "message",
                    "numinlets": 2,
                    "numoutlets": 1,
                    "outlettype": [ "" ],
                    "patching_rect": [ 1046.0, 1284.0, 48.0, 23.0 ],
                    "text": "set $1"
                }
            },
            {
                "box": {
                    "fontname": "Arial",
                    "fontsize": 13.0,
                    "hidden": 1,
                    "id": "obj-6",
                    "maxclass": "message",
                    "numinlets": 2,
                    "numoutlets": 1,
                    "outlettype": [ "" ],
                    "patching_rect": [ 966.0, 1284.0, 48.0, 23.0 ],
                    "text": "set $1"
                }
            },
            {
                "box": {
                    "fontname": "Arial",
                    "fontsize": 13.0,
                    "hidden": 1,
                    "id": "obj-8",
                    "maxclass": "message",
                    "numinlets": 2,
                    "numoutlets": 1,
                    "outlettype": [ "" ],
                    "patching_rect": [ 871.0, 1284.0, 48.0, 23.0 ],
                    "text": "set $1"
                }
            },
            {
                "box": {
                    "fontname": "Arial",
                    "fontsize": 13.0,
                    "id": "obj-12",
                    "maxclass": "message",
                    "numinlets": 2,
                    "numoutlets": 1,
                    "outlettype": [ "" ],
                    "patching_rect": [ 732.0, 1530.0, 360.0, 23.0 ],
                    "text": "0.981997 1.963993 0.981997 1.918532 0.92293"
                }
            },
            {
                "box": {
                    "fontname": "Arial",
                    "fontsize": 13.0,
                    "format": 6,
                    "id": "obj-72",
                    "maxclass": "flonum",
                    "numinlets": 1,
                    "numoutlets": 2,
                    "outlettype": [ "", "bang" ],
                    "parameter_enable": 0,
                    "patching_rect": [ 1046.0, 1320.0, 55.0, 23.0 ]
                }
            },
            {
                "box": {
                    "fontname": "Arial",
                    "fontsize": 13.0,
                    "format": 6,
                    "id": "obj-74",
                    "maxclass": "flonum",
                    "numinlets": 1,
                    "numoutlets": 2,
                    "outlettype": [ "", "bang" ],
                    "parameter_enable": 0,
                    "patching_rect": [ 966.0, 1320.0, 55.0, 23.0 ]
                }
            },
            {
                "box": {
                    "fontname": "Arial",
                    "fontsize": 13.0,
                    "format": 6,
                    "id": "obj-75",
                    "maxclass": "flonum",
                    "numinlets": 1,
                    "numoutlets": 2,
                    "outlettype": [ "", "bang" ],
                    "parameter_enable": 0,
                    "patching_rect": [ 876.0, 1320.0, 57.0, 23.0 ]
                }
            },
            {
                "box": {
                    "fontface": 0,
                    "id": "obj-81",
                    "linmarkers": [ 0.0, 11025.0, 16537.5 ],
                    "logmarkers": [ 0.0, 100.0, 1000.0, 10000.0 ],
                    "maxclass": "filtergraph~",
                    "nfilters": 1,
                    "numinlets": 8,
                    "numoutlets": 7,
                    "outlettype": [ "list", "float", "float", "float", "float", "list", "int" ],
                    "parameter_enable": 0,
                    "patching_rect": [ 732.0, 1357.0, 360.0, 155.0 ],
                    "setfilter": [ 0, 1, 1, 0, 0, 21575.25390625, 1.0225237607955933, 0.8431747555732727, 0.0, 0.0, 0.0, 0.0, 0.0, 0.0 ],
                    "varname": "filtergraph~"
                }
            },
            {
                "box": {
                    "bubble": 1,
                    "fontname": "Arial",
                    "fontsize": 13.0,
                    "id": "obj-24",
                    "linecount": 2,
                    "maxclass": "comment",
                    "numinlets": 1,
                    "numoutlets": 0,
                    "patching_rect": [ 423.0, 1540.0, 120.0, 40.0 ],
                    "text": "clear biquad~ if filter blows up"
                }
            },
            {
                "box": {
                    "fontname": "Arial",
                    "fontsize": 13.0,
                    "id": "obj-63",
                    "maxclass": "message",
                    "numinlets": 2,
                    "numoutlets": 1,
                    "outlettype": [ "" ],
                    "patching_rect": [ 373.0, 1550.0, 43.0, 23.0 ],
                    "text": "clear"
                }
            },
            {
                "box": {
                    "fontname": "Arial",
                    "fontsize": 13.0,
                    "id": "obj-13",
                    "maxclass": "newobj",
                    "numinlets": 6,
                    "numoutlets": 1,
                    "outlettype": [ "signal" ],
                    "patching_rect": [ 338.0, 1595.0, 92.0, 23.0 ],
                    "text": "biquad~"
                }
            },
            {
                "box": {
                    "attr": "edit_mode",
                    "fontface": 0,
                    "fontname": "Arial",
                    "fontsize": 13.0,
                    "id": "obj-14",
                    "lock": 1,
                    "maxclass": "attrui",
                    "numinlets": 1,
                    "numoutlets": 1,
                    "orientation": 1,
                    "outlettype": [ "" ],
                    "parameter_enable": 0,
                    "patching_rect": [ 732.0, 1306.0, 83.0, 46.0 ],
                    "text_width": 83.0
                }
            },
            {
                "box": {
                    "id": "obj-11",
                    "maxclass": "button",
                    "numinlets": 1,
                    "numoutlets": 1,
                    "outlettype": [ "bang" ],
                    "parameter_enable": 0,
                    "patching_rect": [ 310.0, 62.0, 24.0, 24.0 ]
                }
            },
            {
                "box": {
                    "id": "obj-9",
                    "maxclass": "message",
                    "numinlets": 2,
                    "numoutlets": 1,
                    "outlettype": [ "" ],
                    "patching_rect": [ 310.0, 122.0, 29.5, 22.0 ],
                    "text": "1"
                }
            },
            {
                "box": {
                    "id": "obj-7",
                    "linecount": 2,
                    "maxclass": "comment",
                    "numinlets": 1,
                    "numoutlets": 0,
                    "patching_rect": [ 307.0, 2497.0, 153.0, 33.0 ],
                    "text": "this is so that we can have panning "
                }
            },
            {
                "box": {
                    "id": "obj-5",
                    "maxclass": "newobj",
                    "numinlets": 2,
                    "numoutlets": 1,
                    "outlettype": [ "signal" ],
                    "patching_rect": [ 472.0, 2597.0, 29.5, 22.0 ],
                    "text": "*~"
                }
            },
            {
                "box": {
                    "id": "obj-4",
                    "maxclass": "newobj",
                    "numinlets": 2,
                    "numoutlets": 1,
                    "outlettype": [ "signal" ],
                    "patching_rect": [ 251.0, 2589.0, 29.5, 22.0 ],
                    "text": "*~"
                }
            },
            {
                "box": {
                    "id": "obj-3",
                    "maxclass": "ezdac~",
                    "numinlets": 2,
                    "numoutlets": 0,
                    "patching_rect": [ 409.0, 2993.0, 45.0, 45.0 ]
                }
            },
            {
                "box": {
                    "id": "obj-2",
                    "lastchannelcount": 0,
                    "maxclass": "live.gain~",
                    "numinlets": 2,
                    "numoutlets": 5,
                    "outlettype": [ "signal", "signal", "", "float", "list" ],
                    "parameter_enable": 1,
                    "patching_rect": [ 401.0, 2814.0, 48.0, 136.0 ],
                    "saved_attribute_attributes": {
                        "valueof": {
                            "parameter_longname": "live.gain~",
                            "parameter_mmax": 6.0,
                            "parameter_mmin": -70.0,
                            "parameter_modmode": 3,
                            "parameter_shortname": "live.gain~",
                            "parameter_type": 0,
                            "parameter_unitstyle": 4
                        }
                    },
                    "varname": "live.gain~"
                }
            },
            {
                "box": {
                    "clipheight": 23.09090909090909,
                    "data": {
                        "clips": [
                            {
                                "absolutepath": "01 Clairo - Nomad.flac",
                                "filename": "01 Clairo - Nomad.flac",
                                "filekind": "audiofile",
                                "id": "u306010705",
                                "loop": 0,
                                "content_state": {                                }
                            },
                            {
                                "absolutepath": "02 Clairo - Sexy to Someone.flac",
                                "filename": "02 Clairo - Sexy to Someone.flac",
                                "filekind": "audiofile",
                                "id": "u570010706",
                                "loop": 0,
                                "content_state": {                                }
                            },
                            {
                                "absolutepath": "03 Clairo - Second Nature.flac",
                                "filename": "03 Clairo - Second Nature.flac",
                                "filekind": "audiofile",
                                "id": "u703010707",
                                "loop": 0,
                                "content_state": {                                }
                            },
                            {
                                "absolutepath": "04 Clairo - Slow Dance.flac",
                                "filename": "04 Clairo - Slow Dance.flac",
                                "filekind": "audiofile",
                                "id": "u933010708",
                                "loop": 0,
                                "content_state": {                                }
                            },
                            {
                                "absolutepath": "05 Clairo - Thank You.flac",
                                "filename": "05 Clairo - Thank You.flac",
                                "filekind": "audiofile",
                                "id": "u864010709",
                                "loop": 0,
                                "content_state": {                                }
                            },
                            {
                                "absolutepath": "06 Clairo - Terrapin.flac",
                                "filename": "06 Clairo - Terrapin.flac",
                                "filekind": "audiofile",
                                "id": "u192010710",
                                "loop": 0,
                                "content_state": {                                }
                            },
                            {
                                "absolutepath": "07 Clairo - Juna.flac",
                                "filename": "07 Clairo - Juna.flac",
                                "filekind": "audiofile",
                                "id": "u864010700",
                                "loop": 0,
                                "content_state": {                                }
                            },
                            {
                                "absolutepath": "08 Clairo - Add Up My Love.flac",
                                "filename": "08 Clairo - Add Up My Love.flac",
                                "filekind": "audiofile",
                                "id": "u045010701",
                                "loop": 0,
                                "content_state": {                                }
                            },
                            {
                                "absolutepath": "09 Clairo - Echo.flac",
                                "filename": "09 Clairo - Echo.flac",
                                "filekind": "audiofile",
                                "id": "u822010702",
                                "loop": 0,
                                "content_state": {                                }
                            },
                            {
                                "absolutepath": "10 Clairo - Glory Of The Snow.flac",
                                "filename": "10 Clairo - Glory Of The Snow.flac",
                                "filekind": "audiofile",
                                "id": "u085010703",
                                "loop": 0,
                                "content_state": {                                }
                            },
                            {
                                "absolutepath": "11 Clairo - Pier 4.flac",
                                "filename": "11 Clairo - Pier 4.flac",
                                "filekind": "audiofile",
                                "id": "u048010704",
                                "loop": 0,
                                "content_state": {                                }
                            }
                        ]
                    },
                    "id": "obj-1",
                    "maxclass": "playlist~",
                    "mode": "basic",
                    "numinlets": 1,
                    "numoutlets": 5,
                    "outlettype": [ "signal", "signal", "signal", "", "dictionary" ],
                    "parameter_enable": 0,
                    "patching_rect": [ 310.0, 197.0, 328.0, 265.0 ],
                    "quality": "basic",
                    "saved_attribute_attributes": {
                        "candicane2": {
                            "expression": ""
                        },
                        "candicane3": {
                            "expression": ""
                        },
                        "candicane4": {
                            "expression": ""
                        },
                        "candicane5": {
                            "expression": ""
                        },
                        "candicane6": {
                            "expression": ""
                        },
                        "candicane7": {
                            "expression": ""
                        },
                        "candicane8": {
                            "expression": ""
                        }
                    }
                }
            },
            {
                "box": {
                    "id": "obj-73",
                    "maxclass": "spectroscope~",
                    "numinlets": 2,
                    "numoutlets": 1,
                    "outlettype": [ "" ],
                    "patching_rect": [ 900.0, 216.0, 386.0, 218.0 ]
                }
            }
        ],
        "lines": [
            {
                "patchline": {
                    "destination": [ "obj-34", 1 ],
                    "source": [ "obj-1", 1 ]
                }
            },
            {
                "patchline": {
                    "destination": [ "obj-34", 0 ],
                    "source": [ "obj-1", 0 ]
                }
            },
            {
                "patchline": {
                    "destination": [ "obj-72", 0 ],
                    "hidden": 1,
                    "source": [ "obj-10", 0 ]
                }
            },
            {
                "patchline": {
                    "destination": [ "obj-9", 0 ],
                    "source": [ "obj-11", 0 ]
                }
            },
            {
                "patchline": {
                    "destination": [ "obj-52", 0 ],
                    "source": [ "obj-13", 0 ]
                }
            },
            {
                "patchline": {
                    "destination": [ "obj-81", 0 ],
                    "source": [ "obj-14", 0 ]
                }
            },
            {
                "patchline": {
                    "destination": [ "obj-16", 0 ],
                    "source": [ "obj-15", 0 ]
                }
            },
            {
                "patchline": {
                    "destination": [ "obj-1", 0 ],
                    "source": [ "obj-16", 0 ]
                }
            },
            {
                "patchline": {
                    "destination": [ "obj-18", 0 ],
                    "source": [ "obj-17", 0 ]
                }
            },
            {
                "patchline": {
                    "destination": [ "obj-1", 0 ],
                    "source": [ "obj-18", 0 ]
                }
            },
            {
                "patchline": {
                    "destination": [ "obj-20", 0 ],
                    "source": [ "obj-19", 0 ]
                }
            },
            {
                "patchline": {
                    "destination": [ "obj-3", 1 ],
                    "source": [ "obj-2", 1 ]
                }
            },
            {
                "patchline": {
                    "destination": [ "obj-3", 0 ],
                    "source": [ "obj-2", 0 ]
                }
            },
            {
                "patchline": {
                    "destination": [ "obj-1", 0 ],
                    "source": [ "obj-20", 0 ]
                }
            },
            {
                "patchline": {
                    "destination": [ "obj-22", 0 ],
                    "source": [ "obj-21", 0 ]
                }
            },
            {
                "patchline": {
                    "destination": [ "obj-1", 0 ],
                    "source": [ "obj-22", 0 ]
                }
            },
            {
                "patchline": {
                    "destination": [ "obj-25", 0 ],
                    "source": [ "obj-23", 0 ]
                }
            },
            {
                "patchline": {
                    "destination": [ "obj-1", 0 ],
                    "source": [ "obj-25", 0 ]
                }
            },
            {
                "patchline": {
                    "destination": [ "obj-27", 0 ],
                    "source": [ "obj-26", 0 ]
                }
            },
            {
                "patchline": {
                    "destination": [ "obj-1", 0 ],
                    "source": [ "obj-27", 0 ]
                }
            },
            {
                "patchline": {
                    "destination": [ "obj-29", 0 ],
                    "source": [ "obj-28", 0 ]
                }
            },
            {
                "patchline": {
                    "destination": [ "obj-1", 0 ],
                    "source": [ "obj-29", 0 ]
                }
            },
            {
                "patchline": {
                    "destination": [ "obj-40", 0 ],
                    "source": [ "obj-30", 0 ]
                }
            },
            {
                "patchline": {
                    "destination": [ "obj-4", 0 ],
                    "source": [ "obj-31", 0 ]
                }
            },
            {
                "patchline": {
                    "destination": [ "obj-52", 0 ],
                    "source": [ "obj-32", 0 ]
                }
            },
            {
                "patchline": {
                    "destination": [ "obj-36", 0 ],
                    "order": 1,
                    "source": [ "obj-33", 0 ]
                }
            },
            {
                "patchline": {
                    "destination": [ "obj-37", 0 ],
                    "order": 0,
                    "source": [ "obj-33", 0 ]
                }
            },
            {
                "patchline": {
                    "destination": [ "obj-13", 0 ],
                    "source": [ "obj-34", 1 ]
                }
            },
            {
                "patchline": {
                    "destination": [ "obj-13", 0 ],
                    "source": [ "obj-34", 0 ]
                }
            },
            {
                "patchline": {
                    "destination": [ "obj-31", 0 ],
                    "source": [ "obj-36", 0 ]
                }
            },
            {
                "patchline": {
                    "destination": [ "obj-38", 0 ],
                    "source": [ "obj-37", 0 ]
                }
            },
            {
                "patchline": {
                    "destination": [ "obj-5", 0 ],
                    "source": [ "obj-38", 0 ]
                }
            },
            {
                "patchline": {
                    "destination": [ "obj-2", 0 ],
                    "source": [ "obj-4", 0 ]
                }
            },
            {
                "patchline": {
                    "destination": [ "obj-36", 0 ],
                    "order": 1,
                    "source": [ "obj-40", 0 ]
                }
            },
            {
                "patchline": {
                    "destination": [ "obj-37", 0 ],
                    "order": 0,
                    "source": [ "obj-40", 0 ]
                }
            },
            {
                "patchline": {
                    "destination": [ "obj-50", 0 ],
                    "source": [ "obj-47", 0 ]
                }
            },
            {
                "patchline": {
                    "destination": [ "obj-52", 0 ],
                    "source": [ "obj-48", 0 ]
                }
            },
            {
                "patchline": {
                    "destination": [ "obj-2", 1 ],
                    "source": [ "obj-5", 0 ]
                }
            },
            {
                "patchline": {
                    "destination": [ "obj-34", 0 ],
                    "source": [ "obj-50", 0 ]
                }
            },
            {
                "patchline": {
                    "destination": [ "obj-34", 0 ],
                    "source": [ "obj-51", 0 ]
                }
            },
            {
                "patchline": {
                    "destination": [ "obj-4", 1 ],
                    "order": 2,
                    "source": [ "obj-52", 0 ]
                }
            },
            {
                "patchline": {
                    "destination": [ "obj-5", 1 ],
                    "order": 1,
                    "source": [ "obj-52", 0 ]
                }
            },
            {
                "patchline": {
                    "destination": [ "obj-73", 0 ],
                    "order": 0,
                    "source": [ "obj-52", 0 ]
                }
            },
            {
                "patchline": {
                    "destination": [ "obj-1", 0 ],
                    "source": [ "obj-54", 0 ]
                }
            },
            {
                "patchline": {
                    "destination": [ "obj-1", 0 ],
                    "source": [ "obj-55", 0 ]
                }
            },
            {
                "patchline": {
                    "destination": [ "obj-51", 0 ],
                    "source": [ "obj-56", 0 ]
                }
            },
            {
                "patchline": {
                    "destination": [ "obj-52", 0 ],
                    "source": [ "obj-59", 0 ]
                }
            },
            {
                "patchline": {
                    "destination": [ "obj-74", 0 ],
                    "hidden": 1,
                    "source": [ "obj-6", 0 ]
                }
            },
            {
                "patchline": {
                    "destination": [ "obj-52", 0 ],
                    "source": [ "obj-60", 0 ]
                }
            },
            {
                "patchline": {
                    "destination": [ "obj-65", 0 ],
                    "source": [ "obj-61", 0 ]
                }
            },
            {
                "patchline": {
                    "destination": [ "obj-13", 0 ],
                    "source": [ "obj-63", 0 ]
                }
            },
            {
                "patchline": {
                    "destination": [ "obj-34", 0 ],
                    "source": [ "obj-65", 0 ]
                }
            },
            {
                "patchline": {
                    "destination": [ "obj-81", 7 ],
                    "source": [ "obj-72", 0 ]
                }
            },
            {
                "patchline": {
                    "destination": [ "obj-81", 6 ],
                    "source": [ "obj-74", 0 ]
                }
            },
            {
                "patchline": {
                    "destination": [ "obj-81", 5 ],
                    "source": [ "obj-75", 0 ]
                }
            },
            {
                "patchline": {
                    "destination": [ "obj-78", 0 ],
                    "source": [ "obj-76", 0 ]
                }
            },
            {
                "patchline": {
                    "destination": [ "obj-34", 0 ],
                    "source": [ "obj-78", 0 ]
                }
            },
            {
                "patchline": {
                    "destination": [ "obj-82", 0 ],
                    "source": [ "obj-79", 0 ]
                }
            },
            {
                "patchline": {
                    "destination": [ "obj-75", 0 ],
                    "hidden": 1,
                    "source": [ "obj-8", 0 ]
                }
            },
            {
                "patchline": {
                    "destination": [ "obj-10", 0 ],
                    "hidden": 1,
                    "source": [ "obj-81", 3 ]
                }
            },
            {
                "patchline": {
                    "destination": [ "obj-12", 1 ],
                    "order": 0,
                    "source": [ "obj-81", 0 ]
                }
            },
            {
                "patchline": {
                    "destination": [ "obj-13", 0 ],
                    "order": 1,
                    "source": [ "obj-81", 0 ]
                }
            },
            {
                "patchline": {
                    "destination": [ "obj-6", 0 ],
                    "hidden": 1,
                    "source": [ "obj-81", 2 ]
                }
            },
            {
                "patchline": {
                    "destination": [ "obj-8", 0 ],
                    "hidden": 1,
                    "source": [ "obj-81", 1 ]
                }
            },
            {
                "patchline": {
                    "destination": [ "obj-34", 0 ],
                    "source": [ "obj-82", 0 ]
                }
            },
            {
                "patchline": {
                    "destination": [ "obj-1", 0 ],
                    "source": [ "obj-9", 0 ]
                }
            }
        ],
        "parameters": {
            "obj-2": [ "live.gain~", "live.gain~", 0 ],
            "parameterbanks": {
                "0": {
                    "index": 0,
                    "name": "",
                    "parameters": [ "-", "-", "-", "-", "-", "-", "-", "-" ],
                    "buttons": [ "-", "-", "-", "-", "-", "-", "-", "-" ]
                }
            },
            "inherited_shortname": 1
        },
        "autosave": 0
    }
}