{
    "patcher": {
        "fileversion": 1,
        "appversion": {
            "major": 9,
            "minor": 1,
            "revision": 2,
            "architecture": "x64",
            "modernui": 1
        },
        "classnamespace": "box",
        "rect": [ 134.0, 95.0, 1332.0, 794.0 ],
        "boxes": [
            {
                "box": {
                    "id": "obj-51",
                    "maxclass": "message",
                    "numinlets": 2,
                    "numoutlets": 1,
                    "outlettype": [ "" ],
                    "patching_rect": [ 596.800008893013, 232.0000034570694, 50.0, 22.0 ],
                    "text": "26"
                }
            },
            {
                "box": {
                    "format": 4,
                    "id": "obj-48",
                    "maxclass": "number",
                    "numinlets": 1,
                    "numoutlets": 2,
                    "outlettype": [ "", "bang" ],
                    "parameter_enable": 0,
                    "patching_rect": [ 376.80000561475754, 262.4000039100647, 50.0, 22.0 ],
                    "prototypename": "float"
                }
            },
            {
                "box": {
                    "id": "obj-44",
                    "maxclass": "comment",
                    "numinlets": 1,
                    "numoutlets": 0,
                    "patching_rect": [ 272.00000405311584, 367.2000054717064, 150.0, 20.0 ],
                    "text": "frequency value"
                }
            },
            {
                "box": {
                    "id": "obj-42",
                    "maxclass": "comment",
                    "numinlets": 1,
                    "numoutlets": 0,
                    "patching_rect": [ 456.0000067949295, 238.40000355243683, 150.0, 20.0 ],
                    "text": "midi value"
                }
            },
            {
                "box": {
                    "id": "obj-39",
                    "linecount": 2,
                    "maxclass": "comment",
                    "numinlets": 1,
                    "numoutlets": 0,
                    "patching_rect": [ 413.60000616312027, 311.20000463724136, 150.0, 33.0 ],
                    "text": "midi to frequency converter"
                }
            },
            {
                "box": {
                    "id": "obj-36",
                    "maxclass": "message",
                    "numinlets": 2,
                    "numoutlets": 1,
                    "outlettype": [ "" ],
                    "patching_rect": [ 376.80000561475754, 229.6000034213066, 50.0, 22.0 ],
                    "text": "65"
                }
            },
            {
                "box": {
                    "id": "obj-34",
                    "maxclass": "newobj",
                    "numinlets": 1,
                    "numoutlets": 1,
                    "outlettype": [ "" ],
                    "patching_rect": [ 352.00000524520874, 303.2000045180321, 32.0, 22.0 ],
                    "text": "mtof"
                }
            },
            {
                "box": {
                    "id": "obj-33",
                    "maxclass": "comment",
                    "numinlets": 1,
                    "numoutlets": 0,
                    "patching_rect": [ 704.8000105023384, 198.9000027179718, 150.0, 20.0 ],
                    "text": "kslider"
                }
            },
            {
                "box": {
                    "id": "obj-30",
                    "maxclass": "kslider",
                    "numinlets": 2,
                    "numoutlets": 2,
                    "outlettype": [ "int", "int" ],
                    "parameter_enable": 0,
                    "patching_rect": [ 283.60000640153885, 155.20000231266022, 336.0, 53.0 ]
                }
            },
            {
                "box": {
                    "bgcolor": [ 0.094118, 0.113725, 0.137255, 1.0 ],
                    "fgcolor": [ 1.0, 0.603922, 0.0, 1.0 ],
                    "id": "obj-29",
                    "interval": 50,
                    "logfreq": 1,
                    "markercolor": [ 0.301961, 0.337255, 0.403922, 1.0 ],
                    "maxclass": "spectroscope~",
                    "monochrome": 0,
                    "numinlets": 2,
                    "numoutlets": 1,
                    "outlettype": [ "" ],
                    "patching_rect": [ 466.4000069499016, 826.4000123143196, 300.0, 100.0 ],
                    "sono": 1,
                    "sonohicolor": [ 1.0, 1.0, 1.0, 1.0 ],
                    "sonolocolor": [ 0.094118, 0.113725, 0.137255, 1.0 ],
                    "sonomedcolor": [ 0.301961, 0.337255, 0.403922, 1.0 ],
                    "sonomedhicolor": [ 0.494118, 0.556863, 0.607843, 1.0 ],
                    "sonomedlocolor": [ 0.666667, 0.698039, 0.717647, 1.0 ],
                    "sonomonofgcolor": [ 0.094118, 0.113725, 0.137255, 1.0 ]
                }
            },
            {
                "box": {
                    "bgcolor": [ 0.094118, 0.113725, 0.137255, 1.0 ],
                    "fgcolor": [ 1.0, 0.603922, 0.0, 1.0 ],
                    "id": "obj-28",
                    "interval": 50,
                    "logfreq": 1,
                    "markercolor": [ 0.301961, 0.337255, 0.403922, 1.0 ],
                    "maxclass": "spectroscope~",
                    "monochrome": 0,
                    "numinlets": 2,
                    "numoutlets": 1,
                    "outlettype": [ "" ],
                    "patching_rect": [ 476.0000070929527, 721.6000107526779, 296.0, 86.0 ],
                    "sonohicolor": [ 1.0, 1.0, 1.0, 1.0 ],
                    "sonolocolor": [ 0.094118, 0.113725, 0.137255, 1.0 ],
                    "sonomedcolor": [ 0.301961, 0.337255, 0.403922, 1.0 ],
                    "sonomedhicolor": [ 0.494118, 0.556863, 0.607843, 1.0 ],
                    "sonomedlocolor": [ 0.666667, 0.698039, 0.717647, 1.0 ],
                    "sonomonofgcolor": [ 0.094118, 0.113725, 0.137255, 1.0 ]
                }
            },
            {
                "box": {
                    "id": "obj-27",
                    "maxclass": "comment",
                    "numinlets": 1,
                    "numoutlets": 0,
                    "patching_rect": [ 586.4000087380409, 699.2000104188919, 150.0, 20.0 ],
                    "text": "spectroscope~"
                }
            },
            {
                "box": {
                    "id": "obj-25",
                    "maxclass": "number",
                    "numinlets": 1,
                    "numoutlets": 2,
                    "outlettype": [ "", "bang" ],
                    "parameter_enable": 0,
                    "patching_rect": [ 392.0000058412552, 375.2000055909157, 50.0, 22.0 ]
                }
            },
            {
                "box": {
                    "id": "obj-22",
                    "maxclass": "spectroscope~",
                    "numinlets": 2,
                    "numoutlets": 1,
                    "outlettype": [ "" ],
                    "patching_rect": [ 482.40000718832016, 584.8000087141991, 300.0, 100.0 ]
                }
            },
            {
                "box": {
                    "automatic": 1,
                    "id": "obj-21",
                    "maxclass": "scope~",
                    "numinlets": 2,
                    "numoutlets": 0,
                    "patching_rect": [ 532.8000079393387, 519.2000077366829, 100.0, 50.0 ],
                    "prototypename": "M4L.yellow",
                    "style": "rnbomonokai"
                }
            },
            {
                "box": {
                    "id": "obj-19",
                    "maxclass": "comment",
                    "numinlets": 1,
                    "numoutlets": 0,
                    "patching_rect": [ 686.400010228157, 456.80000680685043, 150.0, 20.0 ],
                    "text": "~scope @automatic 1"
                }
            },
            {
                "box": {
                    "automatic": 1,
                    "id": "obj-16",
                    "maxclass": "scope~",
                    "numinlets": 2,
                    "numoutlets": 0,
                    "patching_rect": [ 532.8000079393387, 378.4000056385994, 130.0, 130.0 ]
                }
            },
            {
                "box": {
                    "id": "obj-7",
                    "maxclass": "ezdac~",
                    "numinlets": 2,
                    "numoutlets": 0,
                    "patching_rect": [ 310.0, 703.0, 45.0, 45.0 ]
                }
            },
            {
                "box": {
                    "id": "obj-6",
                    "maxclass": "comment",
                    "numinlets": 1,
                    "numoutlets": 0,
                    "patching_rect": [ 429.60000640153885, 562.400008380413, 44.0, 20.0 ],
                    "text": "gain~"
                }
            },
            {
                "box": {
                    "id": "obj-4",
                    "maxclass": "gain~",
                    "multichannelvariant": 0,
                    "numinlets": 1,
                    "numoutlets": 2,
                    "outlettype": [ "signal", "" ],
                    "parameter_enable": 0,
                    "patching_rect": [ 352.00000524520874, 522.4000077843666, 22.0, 140.0 ]
                }
            },
            {
                "box": {
                    "id": "obj-3",
                    "maxclass": "newobj",
                    "numinlets": 3,
                    "numoutlets": 1,
                    "outlettype": [ "signal" ],
                    "patching_rect": [ 384.0000057220459, 455.2000067830086, 59.0, 22.0 ],
                    "text": "rect~ 220"
                }
            }
        ],
        "lines": [
            {
                "patchline": {
                    "destination": [ "obj-3", 0 ],
                    "source": [ "obj-25", 0 ]
                }
            },
            {
                "patchline": {
                    "destination": [ "obj-16", 0 ],
                    "order": 1,
                    "source": [ "obj-3", 0 ]
                }
            },
            {
                "patchline": {
                    "destination": [ "obj-21", 0 ],
                    "order": 0,
                    "source": [ "obj-3", 0 ]
                }
            },
            {
                "patchline": {
                    "destination": [ "obj-22", 0 ],
                    "order": 2,
                    "source": [ "obj-3", 0 ]
                }
            },
            {
                "patchline": {
                    "destination": [ "obj-29", 0 ],
                    "order": 3,
                    "source": [ "obj-3", 0 ]
                }
            },
            {
                "patchline": {
                    "destination": [ "obj-4", 0 ],
                    "order": 4,
                    "source": [ "obj-3", 0 ]
                }
            },
            {
                "patchline": {
                    "destination": [ "obj-36", 1 ],
                    "order": 0,
                    "source": [ "obj-30", 0 ]
                }
            },
            {
                "patchline": {
                    "destination": [ "obj-48", 0 ],
                    "order": 1,
                    "source": [ "obj-30", 0 ]
                }
            },
            {
                "patchline": {
                    "destination": [ "obj-51", 1 ],
                    "source": [ "obj-30", 1 ]
                }
            },
            {
                "patchline": {
                    "destination": [ "obj-25", 0 ],
                    "source": [ "obj-34", 0 ]
                }
            },
            {
                "patchline": {
                    "destination": [ "obj-28", 0 ],
                    "order": 0,
                    "source": [ "obj-4", 0 ]
                }
            },
            {
                "patchline": {
                    "destination": [ "obj-7", 1 ],
                    "order": 1,
                    "source": [ "obj-4", 0 ]
                }
            },
            {
                "patchline": {
                    "destination": [ "obj-7", 0 ],
                    "order": 2,
                    "source": [ "obj-4", 0 ]
                }
            },
            {
                "patchline": {
                    "destination": [ "obj-34", 0 ],
                    "source": [ "obj-48", 0 ]
                }
            }
        ],
        "autosave": 0,
        "styles": [
            {
                "name": "rnbolight",
                "default": {
                    "accentcolor": [ 0.443137254901961, 0.505882352941176, 0.556862745098039, 1.0 ],
                    "bgcolor": [ 0.796078431372549, 0.862745098039216, 0.925490196078431, 1.0 ],
                    "bgfillcolor": {
                        "angle": 270.0,
                        "autogradient": 0.0,
                        "color": [ 0.835294117647059, 0.901960784313726, 0.964705882352941, 1.0 ],
                        "color1": [ 0.031372549019608, 0.125490196078431, 0.211764705882353, 1.0 ],
                        "color2": [ 0.263682, 0.004541, 0.038797, 1.0 ],
                        "proportion": 0.39,
                        "type": "color"
                    },
                    "clearcolor": [ 0.898039, 0.898039, 0.898039, 1.0 ],
                    "color": [ 0.815686274509804, 0.509803921568627, 0.262745098039216, 1.0 ],
                    "editing_bgcolor": [ 0.898039, 0.898039, 0.898039, 1.0 ],
                    "elementcolor": [ 0.337254901960784, 0.384313725490196, 0.462745098039216, 1.0 ],
                    "fontname": [ "Lato" ],
                    "locked_bgcolor": [ 0.898039, 0.898039, 0.898039, 1.0 ],
                    "stripecolor": [ 0.309803921568627, 0.698039215686274, 0.764705882352941, 1.0 ],
                    "textcolor_inverse": [ 0.0, 0.0, 0.0, 1.0 ]
                },
                "parentstyle": "",
                "multi": 0
            },
            {
                "name": "rnbomonokai",
                "default": {
                    "accentcolor": [ 0.501960784313725, 0.501960784313725, 0.501960784313725, 1.0 ],
                    "bgcolor": [ 0.0, 0.0, 0.0, 1.0 ],
                    "bgfillcolor": {
                        "angle": 270.0,
                        "autogradient": 0.0,
                        "color": [ 0.0, 0.0, 0.0, 1.0 ],
                        "color1": [ 0.031372549019608, 0.125490196078431, 0.211764705882353, 1.0 ],
                        "color2": [ 0.263682, 0.004541, 0.038797, 1.0 ],
                        "proportion": 0.39,
                        "type": "color"
                    },
                    "clearcolor": [ 0.976470588235294, 0.96078431372549, 0.917647058823529, 1.0 ],
                    "color": [ 0.611764705882353, 0.125490196078431, 0.776470588235294, 1.0 ],
                    "editing_bgcolor": [ 0.976470588235294, 0.96078431372549, 0.917647058823529, 1.0 ],
                    "elementcolor": [ 0.749019607843137, 0.83921568627451, 1.0, 1.0 ],
                    "fontname": [ "Lato" ],
                    "locked_bgcolor": [ 0.976470588235294, 0.96078431372549, 0.917647058823529, 1.0 ],
                    "stripecolor": [ 0.796078431372549, 0.207843137254902, 1.0, 1.0 ],
                    "textcolor": [ 0.129412, 0.129412, 0.129412, 1.0 ]
                },
                "parentstyle": "",
                "multi": 0
            }
        ]
    }
}