{
    "patcher": {
        "fileversion": 1,
        "appversion": {
            "major": 9,
            "minor": 1,
            "revision": 3,
            "architecture": "x64",
            "modernui": 1
        },
        "classnamespace": "box",
        "rect": [ 59.0, 81.0, 1000.0, 780.0 ],
        "boxes": [
            {
                "box": {
                    "id": "obj-3",
                    "linecount": 3,
                    "maxclass": "comment",
                    "numinlets": 1,
                    "numoutlets": 0,
                    "patching_rect": [ 480.5, 257.5, 151.0, 47.0 ],
                    "text": "adds message in front of input and adds arguement at end of message"
                }
            },
            {
                "box": {
                    "fontface": 0,
                    "fontname": "Arial",
                    "fontsize": 12.0,
                    "id": "obj-28",
                    "maxclass": "jit.fpsgui",
                    "mode": 1,
                    "numinlets": 1,
                    "numoutlets": 2,
                    "outlettype": [ "", "" ],
                    "patching_rect": [ 52.333331525325775, 632.0, 80.0, 35.0 ]
                }
            },
            {
                "box": {
                    "id": "obj-25",
                    "maxclass": "message",
                    "numinlets": 2,
                    "numoutlets": 1,
                    "outlettype": [ "" ],
                    "patching_rect": [ 184.40000945329666, 338.66667675971985, 66.0, 22.0 ],
                    "text": "vdevice $1"
                }
            },
            {
                "box": {
                    "id": "obj-22",
                    "items": "FaceTime HD Camera (Built-in)",
                    "maxclass": "umenu",
                    "numinlets": 1,
                    "numoutlets": 3,
                    "outlettype": [ "int", "", "" ],
                    "parameter_enable": 0,
                    "patching_rect": [ 184.40000945329666, 304.000009059906, 100.0, 22.0 ]
                }
            },
            {
                "box": {
                    "id": "obj-55",
                    "linecount": 3,
                    "maxclass": "comment",
                    "numinlets": 1,
                    "numoutlets": 0,
                    "patching_rect": [ 300.33333337306976, 261.666665494442, 151.0, 47.0 ],
                    "text": "adds message in front of input and adds arguement at end of message"
                }
            },
            {
                "box": {
                    "id": "obj-37",
                    "linecount": 2,
                    "maxclass": "comment",
                    "numinlets": 1,
                    "numoutlets": 0,
                    "patching_rect": [ 216.40000945329666, 212.166665494442, 150.0, 33.0 ],
                    "text": "breaks list into\nindividual messages"
                }
            },
            {
                "box": {
                    "id": "obj-27",
                    "maxclass": "newobj",
                    "numinlets": 1,
                    "numoutlets": 1,
                    "outlettype": [ "" ],
                    "patching_rect": [ 184.40000945329666, 261.666665494442, 96.0, 22.0 ],
                    "text": "prepend append"
                }
            },
            {
                "box": {
                    "id": "obj-26",
                    "maxclass": "newobj",
                    "numinlets": 1,
                    "numoutlets": 1,
                    "outlettype": [ "" ],
                    "patching_rect": [ 184.40000945329666, 217.666665494442, 25.0, 22.0 ],
                    "text": "iter"
                }
            },
            {
                "box": {
                    "id": "obj-21",
                    "maxclass": "newobj",
                    "numinlets": 2,
                    "numoutlets": 2,
                    "outlettype": [ "", "" ],
                    "patching_rect": [ 184.40000945329666, 165.6000024676323, 79.0, 22.0 ],
                    "text": "route vdevlist"
                }
            },
            {
                "box": {
                    "id": "obj-17",
                    "maxclass": "message",
                    "numinlets": 2,
                    "numoutlets": 1,
                    "outlettype": [ "" ],
                    "patching_rect": [ 341.2000042796135, 189.60000282526016, 207.33333802223206, 22.0 ],
                    "text": "\"FaceTime HD Camera (Built-in)\""
                }
            },
            {
                "box": {
                    "id": "obj-15",
                    "maxclass": "message",
                    "numinlets": 2,
                    "numoutlets": 1,
                    "outlettype": [ "" ],
                    "patching_rect": [ 304.80000454187393, 99.20000147819519, 65.0, 22.0 ],
                    "text": "getvdevlist"
                }
            },
            {
                "box": {
                    "id": "obj-13",
                    "maxclass": "comment",
                    "numinlets": 1,
                    "numoutlets": 0,
                    "patching_rect": [ 127.10000330209732, 69.79999977350235, 224.0, 20.0 ],
                    "text": "qmetro runs in background (optimizaton)"
                }
            },
            {
                "box": {
                    "id": "obj-30",
                    "linecount": 3,
                    "maxclass": "comment",
                    "numinlets": 1,
                    "numoutlets": 0,
                    "patching_rect": [ 184.40000945329666, 15.666664004325867, 152.0, 47.0 ],
                    "text": "frames in miliseconds\nkeep under 100 for decent \nframe rate"
                }
            },
            {
                "box": {
                    "id": "obj-12",
                    "maxclass": "newobj",
                    "numinlets": 2,
                    "numoutlets": 1,
                    "outlettype": [ "bang" ],
                    "patching_rect": [ 108.33333152532578, 41.600000619888306, 63.0, 22.0 ],
                    "text": "qmetro 30"
                }
            },
            {
                "box": {
                    "id": "obj-11",
                    "maxclass": "toggle",
                    "numinlets": 1,
                    "numoutlets": 1,
                    "outlettype": [ "int" ],
                    "parameter_enable": 0,
                    "patching_rect": [ 108.33333152532578, 8.800000131130219, 24.0, 24.0 ]
                }
            },
            {
                "box": {
                    "id": "obj-9",
                    "maxclass": "message",
                    "numinlets": 2,
                    "numoutlets": 1,
                    "outlettype": [ "" ],
                    "patching_rect": [ 258.6000033020973, 96.00000143051147, 37.0, 22.0 ],
                    "text": "close"
                }
            },
            {
                "box": {
                    "id": "obj-6",
                    "maxclass": "message",
                    "numinlets": 2,
                    "numoutlets": 1,
                    "outlettype": [ "" ],
                    "patching_rect": [ 221.60000330209732, 96.00000143051147, 35.0, 22.0 ],
                    "text": "open"
                }
            },
            {
                "box": {
                    "id": "obj-4",
                    "maxclass": "comment",
                    "numinlets": 1,
                    "numoutlets": 0,
                    "patching_rect": [ 127.6000086069107, 596.5333460569382, 162.00000035762787, 20.0 ],
                    "text": "jit.pwindow @size 320 240"
                }
            },
            {
                "box": {
                    "id": "obj-8",
                    "linecount": 2,
                    "maxclass": "comment",
                    "numinlets": 1,
                    "numoutlets": 0,
                    "patching_rect": [ 472.0000034570694, 22.666664004325867, 150.0, 33.0 ],
                    "text": "windows jit.dx.grab\nor jit.qt.grab with vdig "
                }
            },
            {
                "box": {
                    "id": "obj-2",
                    "maxclass": "newobj",
                    "numinlets": 1,
                    "numoutlets": 2,
                    "outlettype": [ "jit_matrix", "" ],
                    "patching_rect": [ 108.33333152532578, 104.66999922513962, 105.0, 22.0 ],
                    "text": "jit.qt.grab 320 240"
                }
            },
            {
                "box": {
                    "id": "obj-1",
                    "maxclass": "jit.pwindow",
                    "numinlets": 1,
                    "numoutlets": 2,
                    "outlettype": [ "jit_matrix", "" ],
                    "patching_rect": [ 51.53333067893982, 383.93333625793457, 269.5999980568886, 199.99999821186066 ],
                    "sync": 1
                }
            }
        ],
        "lines": [
            {
                "patchline": {
                    "destination": [ "obj-28", 0 ],
                    "source": [ "obj-1", 0 ]
                }
            },
            {
                "patchline": {
                    "destination": [ "obj-12", 0 ],
                    "source": [ "obj-11", 0 ]
                }
            },
            {
                "patchline": {
                    "destination": [ "obj-2", 0 ],
                    "source": [ "obj-12", 0 ]
                }
            },
            {
                "patchline": {
                    "destination": [ "obj-2", 0 ],
                    "source": [ "obj-15", 0 ]
                }
            },
            {
                "patchline": {
                    "destination": [ "obj-1", 0 ],
                    "source": [ "obj-2", 0 ]
                }
            },
            {
                "patchline": {
                    "destination": [ "obj-21", 0 ],
                    "source": [ "obj-2", 1 ]
                }
            },
            {
                "patchline": {
                    "destination": [ "obj-17", 1 ],
                    "order": 0,
                    "source": [ "obj-21", 0 ]
                }
            },
            {
                "patchline": {
                    "destination": [ "obj-26", 0 ],
                    "order": 1,
                    "source": [ "obj-21", 0 ]
                }
            },
            {
                "patchline": {
                    "destination": [ "obj-25", 0 ],
                    "source": [ "obj-22", 0 ]
                }
            },
            {
                "patchline": {
                    "destination": [ "obj-2", 0 ],
                    "source": [ "obj-25", 0 ]
                }
            },
            {
                "patchline": {
                    "destination": [ "obj-27", 0 ],
                    "source": [ "obj-26", 0 ]
                }
            },
            {
                "patchline": {
                    "destination": [ "obj-22", 0 ],
                    "source": [ "obj-27", 0 ]
                }
            },
            {
                "patchline": {
                    "destination": [ "obj-2", 0 ],
                    "source": [ "obj-6", 0 ]
                }
            },
            {
                "patchline": {
                    "destination": [ "obj-2", 0 ],
                    "source": [ "obj-9", 0 ]
                }
            }
        ],
        "autosave": 0
    }
}